<?xml version="1.0" standalone="no"?>
<!DOCTYPE svg PUBLIC "-//W3C//DTD SVG 20010904//EN"
 "http://www.w3.org/TR/2001/REC-SVG-20010904/DTD/svg10.dtd">
<svg version="1.0" xmlns="http://www.w3.org/2000/svg"
 width="572.000000pt" height="447.000000pt" viewBox="0 0 572.000000 447.000000"
 preserveAspectRatio="xMidYMid meet">

<g transform="translate(0.000000,447.000000) scale(0.100000,-0.100000)"
fill="#000000" stroke="none">
<path d="M4375 3218 c-13 -19 -18 -21 -35 -10 -51 32 -110 -2 -110 -63 0 -72
46 -115 124 -115 32 0 36 -3 41 -32 3 -18 6 -53 8 -78 2 -42 0 -45 -21 -42
-15 1 -22 -2 -20 -10 3 -7 18 -14 35 -16 39 -4 73 36 73 83 0 29 4 33 35 39
39 8 55 30 55 75 0 39 -33 75 -61 66 -17 -6 -19 -1 -19 40 0 65 -13 85 -55 85
-24 0 -39 -7 -50 -22z"/>
<path d="M2638 3019 c6 -8 16 -33 22 -55 l10 -39 -5 39 c-2 22 -12 47 -22 55
-15 15 -16 15 -5 0z"/>
<path d="M2859 2958 c2 -37 -1 -54 -15 -70 -18 -19 -19 -48 -16 -607 1 -322 5
-618 8 -657 6 -68 17 -105 28 -93 28 28 39 931 16 1214 -7 77 -11 165 -10 197
0 31 -3 58 -7 61 -4 3 -6 -17 -4 -45z"/>
<path d="M2990 2947 l5 -62 3 54 c2 30 0 58 -5 62 -4 4 -6 -20 -3 -54z"/>
<path d="M3411 2974 c0 -11 3 -14 6 -6 3 7 2 16 -1 19 -3 4 -6 -2 -5 -13z"/>
<path d="M3380 2927 c-14 -12 -37 -30 -50 -40 -24 -17 -24 -17 8 0 18 10 43
28 54 41 27 28 21 28 -12 -1z"/>
<path d="M2651 2903 c-1 -13 -7 -23 -16 -23 -13 0 -15 -28 -15 -194 0 -280 37
-886 55 -904 9 -9 104 40 110 57 48 121 -39 965 -105 1031 -10 10 -20 26 -23
37 -4 15 -5 14 -6 -4z"/>
<path d="M3274 2854 c-18 -14 -18 -15 4 -4 12 6 22 13 22 15 0 8 -5 6 -26 -11z"/>
<path d="M1626 2700 c-8 -50 -24 -51 -75 -5 -21 19 -44 35 -50 35 -25 0 -89
-40 -119 -75 -42 -47 -51 -84 -26 -102 52 -37 82 -75 92 -115 20 -77 97 -128
194 -128 86 1 139 17 170 53 26 30 27 31 28 10 0 -27 2 -27 86 -11 68 12 101
36 90 64 -10 25 -156 15 -215 -15 -24 -13 -45 -21 -47 -19 -2 2 1 22 7 44 6
21 9 64 6 94 -5 47 -3 58 16 78 l22 24 -24 19 c-23 19 -138 89 -145 89 -2 0
-6 -18 -10 -40z"/>
<path d="M3423 2722 c-17 -2 -25 -14 -34 -45 -38 -146 -149 -459 -226 -640
-50 -117 -49 -127 8 -127 23 0 29 7 48 59 27 75 86 142 153 173 96 45 91 47
116 -36 25 -80 75 -145 84 -109 3 10 4 63 3 118 l-2 100 41 39 c39 37 40 37 3
7 -21 -17 -40 -31 -42 -31 -3 0 -5 41 -5 90 l0 91 46 19 c34 15 44 24 40 36
-3 9 -6 23 -6 32 -1 9 -23 33 -51 52 -42 29 -88 81 -144 162 -5 8 -20 12 -32
10z"/>
<path d="M1457 2263 c-4 -3 -7 -20 -7 -37 0 -17 -18 -64 -39 -106 -61 -117
-71 -164 -81 -368 -9 -186 -36 -376 -70 -499 -12 -44 -15 -72 -9 -79 30 -37
392 -126 450 -111 25 6 27 11 38 113 59 527 56 781 -14 959 -13 34 -22 71 -19
85 l5 25 -83 -3 c-61 -3 -95 1 -122 12 -45 19 -41 18 -49 9z m-51 -690 c-4
-93 -11 -188 -16 -213 -9 -45 -9 -45 -5 10 3 30 8 126 11 213 4 86 9 157 12
157 3 0 2 -75 -2 -167z m-29 -295 c-3 -7 -5 -2 -5 12 0 14 2 19 5 13 2 -7 2
-19 0 -25z m-10 -40 c-3 -8 -6 -5 -6 6 -1 11 2 17 5 13 3 -3 4 -12 1 -19z"/>
<path d="M4199 2180 c-45 -13 -68 -30 -84 -60 -22 -42 -18 -51 5 -13 35 58
119 82 168 47 13 -9 26 -14 29 -11 7 8 -37 34 -67 40 -14 3 -37 1 -51 -3z"/>
<path d="M3590 2016 c0 -2 11 -6 25 -8 13 -3 22 -1 19 3 -5 9 -44 13 -44 5z"/>
<path d="M4429 1970 c-9 -5 -56 -21 -105 -35 -76 -23 -108 -27 -225 -27 l-135
0 13 -51 c50 -192 2 -836 -62 -831 -6 0 -20 20 -32 43 -11 23 -23 37 -25 31
-1 -5 -3 11 -4 36 -1 25 -5 49 -10 52 -5 4 -10 25 -12 47 -5 57 -21 68 -18 12
1 -28 -1 -44 -7 -40 -6 3 -7 1 -3 -5 4 -7 0 -22 -8 -34 -18 -26 -21 -42 -5
-33 6 4 5 -1 -2 -12 -7 -12 -9 -31 -5 -47 4 -15 8 -66 10 -114 3 -48 7 -118
10 -157 3 -38 6 -89 6 -113 -1 -23 3 -42 7 -42 4 0 8 -24 9 -52 0 -29 3 -75 7
-103 4 -27 10 -76 13 -108 3 -31 14 -88 24 -125 10 -37 16 -70 12 -73 -4 -3
-29 -14 -56 -24 -53 -19 -86 -46 -86 -70 0 -12 15 -15 78 -14 42 1 91 4 107 8
28 6 30 10 30 51 0 36 6 52 28 75 15 17 40 66 55 110 l27 80 0 465 c0 356 3
475 13 509 7 23 16 40 20 37 3 -4 5 -51 3 -105 -2 -63 1 -101 8 -106 6 -3 11
-12 11 -18 0 -7 -4 -6 -11 3 -8 11 -9 -36 -4 -165 3 -99 8 -238 9 -310 5 -255
10 -325 25 -334 8 -5 9 -11 3 -15 -11 -7 -4 -56 9 -56 5 0 5 -7 2 -17 -4 -11
-3 -14 5 -9 8 5 10 2 6 -8 -3 -9 5 -26 19 -40 14 -14 22 -28 19 -31 -4 -3 1
-3 10 0 9 4 14 13 11 21 -3 8 0 14 6 14 6 0 10 -6 9 -12 -2 -7 2 -12 9 -11 13
3 11 -23 -3 -35 -5 -5 -31 -17 -59 -27 -53 -19 -105 -60 -105 -82 0 -15 30
-18 140 -13 106 4 120 10 110 52 -4 18 -11 41 -15 51 -5 12 0 23 16 36 26 20
49 90 65 196 2 11 8 47 13 80 6 33 10 69 10 80 1 11 8 90 16 175 9 85 17 225
18 311 1 87 5 152 9 146 3 -6 7 38 8 99 1 60 3 123 5 139 19 200 10 499 -16
516 -5 3 -7 13 -3 22 7 19 -3 21 -27 7z m-2 -122 c-3 -8 -6 -5 -6 6 -1 11 2
17 5 13 3 -3 4 -12 1 -19z m20 -80 c-3 -7 -5 -2 -5 12 0 14 2 19 5 13 2 -7 2
-19 0 -25z m-314 -178 c-3 -11 -7 -20 -9 -20 -2 0 -4 9 -4 20 0 11 4 20 9 20
5 0 7 -9 4 -20z m324 -62 c-3 -8 -6 -5 -6 6 -1 11 2 17 5 13 3 -3 4 -12 1 -19z
m-30 -150 c-3 -8 -6 -5 -6 6 -1 11 2 17 5 13 3 -3 4 -12 1 -19z m20 -10 c-3
-8 -6 -5 -6 6 -1 11 2 17 5 13 3 -3 4 -12 1 -19z m-310 -80 c-3 -8 -6 -5 -6 6
-1 11 2 17 5 13 3 -3 4 -12 1 -19z m310 -30 c-3 -8 -6 -5 -6 6 -1 11 2 17 5
13 3 -3 4 -12 1 -19z m-310 -100 c-3 -8 -6 -5 -6 6 -1 11 2 17 5 13 3 -3 4
-12 1 -19z m-272 -107 c3 -5 2 -12 -3 -15 -5 -3 -9 1 -9 9 0 17 3 19 12 6z
m25 -41 c0 -5 -2 -10 -4 -10 -3 0 -8 5 -11 10 -3 6 -1 10 4 10 6 0 11 -4 11
-10z m247 -52 c-3 -8 -6 -5 -6 6 -1 11 2 17 5 13 3 -3 4 -12 1 -19z m300 -10
c-3 -8 -6 -5 -6 6 -1 11 2 17 5 13 3 -3 4 -12 1 -19z m-610 -20 c-3 -8 -6 -5
-6 6 -1 11 2 17 5 13 3 -3 4 -12 1 -19z m320 -70 c-3 -8 -6 -5 -6 6 -1 11 2
17 5 13 3 -3 4 -12 1 -19z m-210 -160 c-3 -8 -6 -5 -6 6 -1 11 2 17 5 13 3 -3
4 -12 1 -19z m200 -80 c-3 -8 -6 -5 -6 6 -1 11 2 17 5 13 3 -3 4 -12 1 -19z
m-190 -170 c-3 -7 -5 -2 -5 12 0 14 2 19 5 13 2 -7 2 -19 0 -25z m423 -2 c0
-3 -4 -8 -10 -11 -5 -3 -10 -1 -10 4 0 6 5 11 10 11 6 0 10 -2 10 -4z m-202
-71 c-3 -3 -9 2 -12 12 -6 14 -5 15 5 6 7 -7 10 -15 7 -18z m-278 -59 c0 -3
-4 -8 -10 -11 -5 -3 -10 -1 -10 4 0 6 5 11 10 11 6 0 10 -2 10 -4z m7 -58 c-3
-8 -6 -5 -6 6 -1 11 2 17 5 13 3 -3 4 -12 1 -19z m450 -22 c0 -15 -21 -16 -34
-1 -4 4 -3 5 4 1 6 -3 14 -2 18 4 8 14 12 13 12 -4z m-50 -52 c-3 -3 -12 -4
-19 -1 -8 3 -5 6 6 6 11 1 17 -2 13 -5z"/>
<path d="M1783 522 c4 -5 2 -24 -4 -40 -12 -34 -44 -51 -62 -33 -20 20 -27 11
-27 -34 0 -33 4 -45 15 -45 8 0 12 -6 9 -14 -3 -8 0 -17 6 -21 13 -8 183 -9
210 0 31 10 35 48 10 100 -25 51 -50 60 -50 17 0 -24 -25 -62 -41 -62 -2 0 -4
18 -4 40 -1 40 -28 89 -55 98 -7 3 -10 0 -7 -6z"/>
<path d="M4226 201 c-4 -5 -2 -12 3 -15 5 -4 12 -2 15 3 4 5 2 12 -3 15 -5 4
-12 2 -15 -3z"/>
</g>
</svg>
